Coordinates
version=1
nRows=8
nColumns=40
inDegrees=yes

Units are S.I. units (second, meters, Newtons, ...)
If the header above contains a line with 'inDegrees', this indicates whether rotational values are in degrees (yes) or radians (no).

endheader
time	pelvis_tilt	pelvis_list	pelvis_rotation	pelvis_tx	pelvis_ty	pelvis_tz	hip_flexion_r	hip_adduction_r	hip_rotation_r	knee_angle_r	knee_angle_r_beta	ankle_angle_r	subtalar_angle_r	mtp_angle_r	hip_flexion_l	hip_adduction_l	hip_rotation_l	knee_angle_l	knee_angle_l_beta	ankle_angle_l	subtalar_angle_l	mtp_angle_l	lumbar_extension	lumbar_bending	lumbar_rotation	arm_flex_r	arm_add_r	arm_rot_r	elbow_flex_r	pro_sup_r	wrist_flex_r	wrist_dev_r	arm_flex_l	arm_add_l	arm_rot_l	elbow_flex_l	pro_sup_l	wrist_flex_l	wrist_dev_l
      0.35600000	     21.25382249	      0.59182756	      2.74777782	      0.49171212	      0.96287608	     -0.32282051	     -4.53015153	      1.54537677	     -5.63035625	     26.19730257	      0.45722918	     -3.35255671	      0.00000000	      0.00000000	    -19.76186944	     -3.36602517	      0.94987784	     54.17149392	      0.94547093	    -29.35408416	      0.00000000	      0.00000000	    -34.38235275	      3.12812866	     -4.03598661	      1.36826689	    -15.19375088	     12.45681882	     36.53734928	     74.40634862	      0.00000000	      0.00000000	      6.08200477	    -23.51137589	     25.71543420	     46.29900918	     78.27940915	      0.00000000	      0.00000000
      0.36000000	     21.51064284	      0.47706697	      2.92785363	      0.49751388	      0.96426987	     -0.32222204	     -5.55139329	      1.79705576	     -5.99601287	     25.52705075	      0.44553108	     -3.38011430	      0.00000000	      0.00000000	    -19.36273325	     -3.64901724	      1.03797951	     54.62295681	      0.95335044	    -28.56334966	      0.00000000	      0.00000000	    -34.58110610	      3.26253204	     -3.97350474	      1.47039529	    -15.17888540	     12.60277872	     36.66239703	     74.51115992	      0.00000000	      0.00000000	      6.05615532	    -23.60724773	     25.93510610	     46.11349938	     78.52097609	      0.00000000	      0.00000000
      0.36400000	     21.61772157	      0.49008055	      2.75337708	      0.50246698	      0.96549454	     -0.32223604	     -6.24232750	      1.80149211	     -5.89782703	     25.05232860	      0.43724562	     -3.33444226	      0.00000000	      0.00000000	    -18.78861429	     -3.50916464	      1.01136196	     55.04150325	      0.96065546	    -27.78001356	      0.00000000	      0.00000000	    -34.73772981	      3.18594286	     -3.72926861	      1.62881536	    -15.41293990	     12.91397852	     37.01669086	     74.57287239	      0.00000000	      0.00000000	      6.03001419	    -23.54708048	     26.02338875	     46.08287260	     78.65648762	      0.00000000	      0.00000000
      0.36800000	     21.83177799	      0.26863702	      2.79803239	      0.50867198	      0.96677632	     -0.32179727	     -7.24922495	      2.13630400	     -6.12499407	     24.31907595	      0.42444795	     -3.48370141	      0.00000000	      0.00000000	    -18.39744819	     -3.88135359	      0.81675046	     55.45751021	      0.96791615	    -26.88116797	      0.00000000	      0.00000000	    -34.82419098	      3.36984605	     -3.47741941	      1.52813638	    -15.48909800	     12.92537541	     37.26883327	     74.65255198	      0.00000000	      0.00000000	      5.90214796	    -23.54250034	     26.50736948	     45.74563929	     79.54675479	      0.00000000	      0.00000000
      0.37200000	     21.88639375	      0.29809382	      2.77893083	      0.51398345	      0.96800834	     -0.32167644	     -7.99088242	      2.16628355	     -6.17208813	     23.70164162	      0.41367168	     -3.43031038	      0.00000000	      0.00000000	    -17.81181699	     -3.79703697	      0.93264741	     55.70208807	      0.97218484	    -26.12259696	      0.00000000	      0.00000000	    -34.88896213	      3.32507708	     -3.37619400	      1.75902228	    -15.59151730	     13.24387941	     37.30481376	     74.73924930	      0.00000000	      0.00000000	      5.87805624	    -23.51544850	     26.56374684	     45.56739889	     79.82971377	      0.00000000	      0.00000000
      0.37600000	     22.01829596	      0.26099744	      2.83304879	      0.51964448	      0.96923717	     -0.32123682	     -8.85085305	      2.30149916	     -6.36862911	     23.04911950	      0.40228302	     -3.46637075	      0.00000000	      0.00000000	    -17.31475607	     -3.87211487	      0.97527572	     55.99906329	      0.97736803	    -25.18581606	      0.00000000	      0.00000000	    -34.96193871	      3.33138169	     -3.27792359	      1.80766433	    -15.66279298	     13.44535925	     37.55720196	     74.83448755	      0.00000000	      0.00000000	      5.77491765	    -23.53350929	     26.55304390	     45.46928832	     80.06781554	      0.00000000	      0.00000000
      0.38000000	     22.18816564	      0.21922236	      2.76387177	      0.52518136	      0.97049629	     -0.32097990	     -9.76358600	      2.41089847	     -6.42310596	     22.34041047	      0.38991372	     -3.56969864	      0.00000000	      0.00000000	    -16.90742294	     -3.88094275	      0.95906943	     56.15381571	      0.98006897	    -24.37202884	      0.00000000	      0.00000000	    -35.11079137	      3.31438885	     -3.10627976	      1.90843651	    -15.78115267	     13.58594605	     37.80645287	     74.88317237	      0.00000000	      0.00000000	      5.66625777	    -23.50362418	     26.50566094	     45.36820314	     80.30738486	      0.00000000	      0.00000000
      0.38400000	     22.23239104	      0.30933928	      2.61024465	      0.53066531	      0.97154912	     -0.32061467	    -10.45257880	      2.33277762	     -6.49486399	     21.82889651	      0.38098612	     -3.51481939	      0.00000000	      0.00000000	    -16.34313282	     -3.69843727	      0.89950412	     56.24289420	      0.98162368	    -23.84734128	      0.00000000	      0.00000000	    -35.12834865	      3.12004654	     -2.90952014	      1.98702670	    -15.91022922	     13.82154157	     38.15457468	     74.93529623	      0.00000000	      0.00000000	      5.53920984	    -23.50664711	     26.46689089	     45.36623915	     80.43148469	      0.00000000	      0.00000000
